<?xml version="1.0" encoding="UTF-8"?>
<svg id="Layer_1" xmlns="http://www.w3.org/2000/svg" version="1.1" viewBox="0 0 64 64">
  <!-- Generator: Adobe Illustrator 29.1.0, SVG Export Plug-In . SVG Version: 2.1.0 Build 54)  -->
  <path d="M64,16.8c0-2,0-4,0-6,0-.3-.4-.5-.7-.4-3.6,1.8-7.1,3.5-10.7,5.3-.3-1.2-.7-2.3-1.4-3.2-1.5-2.2-3.9-3.6-6.5-3.8-12.1,0-24.2,0-36.3,0-4.1,0-7.9,3.6-8.2,7.7,0,1.9,0,3.9,0,5.8,0,.5.3.9.7,1.1,6.1,3,12.2,6,18.3,9.1-6,3-12.1,6-18.1,9-.4.2-.9.6-.9,1.1,0,1.9,0,3.9,0,5.8.3,3.9,3.5,7.2,7.4,7.7.8,0,1.5,0,2.3,0h33.8c.8,0,1.6,0,2.4-.2,2.4-.6,4.5-2.2,5.7-4.4.4-.8.6-1.6.9-2.4,3.5,1.8,7,3.5,10.5,5.3.3.2.8,0,.8-.4,0-2,0-4,0-6,0-.4-.3-.7-.7-.9-9.8-4.9-19.6-9.7-29.4-14.6,9.8-4.9,19.6-9.7,29.5-14.6.4-.2.6-.5.6-.9ZM46.2,45.8c0,.9.2,1.8-.3,2.6-.4.7-1.1,1.1-1.9,1.1-11.7,0-23.4,0-35.1,0-.8,0-1.7-.4-2-1.2-.4-.7-.2-1.6-.2-2.4,6.6-3.3,13.2-6.6,19.8-9.8,6.6,3.2,13.1,6.5,19.7,9.8ZM46.2,18.9c-6.6,3.2-13.1,6.5-19.7,9.8-6.6-3.3-13.3-6.6-19.9-9.8,0-.8-.1-1.6.2-2.4.4-.8,1.2-1.2,2-1.2,11.7,0,23.4,0,35.1,0,1.1,0,2.1.8,2.2,1.9,0,.6,0,1.2,0,1.8Z"/>
</svg>