<?xml version="1.0" encoding="UTF-8"?>
<svg id="Layer_1" data-name="Layer 1" xmlns="http://www.w3.org/2000/svg" viewBox="0 0 64 64">
  <defs>
    <style>
      .cls-1 {
        fill: #300;
      }

      .cls-2 {
        fill: #ff9a00;
      }
    </style>
  </defs>
  <path class="cls-1" d="M11.33.8h41.33c6.27,0,11.33,5.07,11.33,11.33v39.73c0,6.27-5.07,11.33-11.33,11.33H11.33c-6.27,0-11.33-5.07-11.33-11.33V12.13C0,5.87,5.07.8,11.33.8Z"/>
  <g>
    <path class="cls-2" d="M31.01,38.24h-9.92l-2.03,6.27c-.05.24-.27.4-.51.37h-5.01c-.29,0-.37-.16-.29-.48l8.59-24.72c.08-.27.16-.56.27-.88.11-.56.16-1.15.16-1.73-.03-.13.08-.27.21-.29h6.91c.21,0,.32.08.35.21l9.73,27.47c.08.29,0,.43-.27.43h-5.57c-.19.03-.37-.11-.43-.29l-2.19-6.35ZM22.64,32.83h6.77c-.16-.56-.37-1.23-.61-1.92-.24-.72-.48-1.49-.72-2.29-.27-.83-.51-1.63-.77-2.45s-.51-1.6-.72-2.37c-.21-.75-.4-1.44-.59-2.08h-.05c-.24,1.15-.53,2.29-.91,3.44-.4,1.28-.8,2.61-1.23,3.95-.37,1.36-.77,2.61-1.17,3.73Z"/>
    <path class="cls-2" d="M45.28,21.33c-.88.03-1.73-.32-2.37-.93-.61-.67-.93-1.55-.91-2.45-.03-.91.32-1.76.96-2.37s1.49-.93,2.37-.93c1.04,0,1.84.32,2.43.93.59.64.91,1.49.88,2.37.03.91-.29,1.79-.93,2.45-.61.64-1.52.99-2.43.93h0ZM42.29,44.48v-20.53c0-.27.11-.37.35-.37h5.28c.24,0,.35.13.35.37v20.53c0,.29-.11.43-.35.43h-5.23c-.27,0-.4-.16-.4-.43Z"/>
  </g>
</svg>