<?xml version="1.0" encoding="UTF-8"?>
<svg id="Layer_1" xmlns="http://www.w3.org/2000/svg" version="1.1" viewBox="0 0 64 64">
  <!-- Generator: Adobe Illustrator 29.1.0, SVG Export Plug-In . SVG Version: 2.1.0 Build 54)  -->
  <defs>
    <style>
      .st0 {
        fill: #001e36;
      }

      .st1 {
        fill: #31a8ff;
      }
    </style>
  </defs>
  <path class="st0" d="M10.8,0h42.4c6.4,0,11.6,5.2,11.6,11.6v40.8c0,6.4-5.2,11.6-11.6,11.6H10.8c-6.4,0-11.6-5.2-11.6-11.6V11.6C-.8,5.2,4.4,0,10.8,0Z"/>
  <g>
    <path class="st1" d="M13.9,44.9v-28.1c0-.2,0-.3.3-.3.5,0,.9,0,1.5,0,.7,0,1.3,0,2.1,0s1.5,0,2.4,0,1.7,0,2.5,0c2.2,0,4.1.3,5.6.8,1.4.5,2.6,1.2,3.7,2.2.9.9,1.6,1.9,2,3.1.4,1.1.6,2.3.6,3.6,0,2.4-.5,4.3-1.6,5.8s-2.6,2.7-4.4,3.3c-1.9.7-3.9.9-6.2.9s-1.1,0-1.4,0-.7,0-1.2,0v8.8c0,.2-.1.4-.3.4h-5.3c-.2,0-.3-.1-.3-.4h0ZM19.9,21.7v9.2c.4,0,.7,0,1.1,0h1.4c1.1,0,2.1-.2,3.1-.5.9-.2,1.6-.8,2.2-1.4.6-.7.8-1.6.8-2.8,0-.8-.2-1.7-.6-2.4-.5-.7-1.1-1.3-1.9-1.6-1-.4-2.1-.6-3.2-.5-.7,0-1.3,0-1.9,0-.5,0-.9,0-1.1,0h0Z"/>
    <path class="st1" d="M51.7,29.2c-.8-.4-1.7-.7-2.6-.9-1-.2-2-.4-3.1-.4-.5,0-1.1,0-1.6.2-.4,0-.7.3-.8.5-.1.2-.2.5-.2.7s.1.5.3.7c.2.3.6.5.9.7.6.3,1.3.6,1.9.9,1.5.5,2.9,1.2,4.2,2,.9.6,1.6,1.3,2.2,2.3.4.9.7,1.8.6,2.8,0,1.3-.4,2.6-1.1,3.6-.8,1.1-1.8,1.9-3.1,2.4-1.3.6-3,.9-5,.9s-2.5-.1-3.7-.4c-1-.2-1.9-.5-2.8-.9-.2-.1-.3-.3-.3-.5v-4.8c0,0,0-.2.1-.2s.2,0,.2,0c1.1.6,2.2,1.1,3.4,1.3,1,.3,2.1.4,3.2.4s1.8-.1,2.3-.4c.4-.2.7-.7.7-1.1s-.2-.7-.7-1.1-1.3-.8-2.7-1.3c-1.4-.5-2.7-1.1-3.9-2-.8-.6-1.6-1.4-2.1-2.3-.4-.9-.7-1.8-.6-2.8,0-1.2.3-2.3.9-3.3.7-1.1,1.7-2,2.9-2.5,1.3-.7,2.9-1,4.8-1s2.3,0,3.4.2c.8.1,1.6.3,2.4.6.1,0,.2.1.3.2,0,.1,0,.2,0,.3v4.5c0,.1,0,.2-.1.3-.2,0-.4,0-.5,0h0Z"/>
  </g>
</svg>