<?xml version="1.0" encoding="UTF-8"?>
<svg id="Layer_1" xmlns="http://www.w3.org/2000/svg" version="1.1" viewBox="0 0 410 400">
  <!-- Generator: Adobe Illustrator 29.1.0, SVG Export Plug-In . SVG Version: 2.1.0 Build 54)  -->
  <defs>
    <style>
      .st0 {
        fill: #21759b;
      }
    </style>
  </defs>
  <path class="st0" d="M34.3,200c0,67.6,39.3,126,96.2,153.6L49.1,130.5c-9.5,21.2-14.8,44.7-14.8,69.5Z"/>
  <path class="st0" d="M320.2,191.4c0-21.1-7.6-35.7-14.1-47.1-8.7-14.1-16.8-26-16.8-40s11.9-30.3,28.7-30.3,1.5,0,2.2.1c-30.4-27.8-70.8-44.8-115.3-44.8S92.9,59.9,62.4,106.2c4,.1,7.8.2,11,.2,17.9,0,45.5-2.2,45.5-2.2,9.2-.5,10.3,13,1.1,14.1,0,0-9.2,1.1-19.5,1.6l62.2,184.9,37.4-112-26.6-72.9c-9.2-.5-17.9-1.6-17.9-1.6-9.2-.5-8.1-14.6,1.1-14.1,0,0,28.2,2.2,45,2.2s45.5-2.2,45.5-2.2c9.2-.5,10.3,13,1.1,14.1,0,0-9.3,1.1-19.5,1.6l61.7,183.5,17-56.9c7.4-23.6,13-40.6,13-55.2h0Z"/>
  <path class="st0" d="M208,214.9l-51.2,148.8c15.3,4.5,31.5,7,48.2,7s38.9-3.4,56.7-9.7c-.5-.7-.9-1.5-1.2-2.4l-52.5-143.8Z"/>
  <path class="st0" d="M354.8,118.1c.7,5.4,1.1,11.3,1.1,17.6,0,17.3-3.2,36.8-13,61.1l-52.1,150.8c50.8-29.6,84.9-84.6,84.9-147.6,0-29.7-7.6-57.6-20.9-81.9h0Z"/>
  <path class="st0" d="M205,1C95.3,1,6,90.3,6,200s89.3,199,199,199,199-89.3,199-199c0-109.7-89.3-199-199-199ZM205,389.9c-104.7,0-189.9-85.2-189.9-189.9S100.3,10.1,205,10.1s189.9,85.2,189.9,189.9-85.2,189.9-189.9,189.9Z"/>
</svg>