<?xml version="1.0" encoding="UTF-8"?>
<svg id="Layer_2" data-name="Layer 2" xmlns="http://www.w3.org/2000/svg" viewBox="0 0 400 403.12">
  <defs>
    <style>
      .cls-1 {
        fill: #fff;
        fill-rule: evenodd;
      }
    </style>
  </defs>
  <g id="Layer_1-2" data-name="Layer 1">
    <path class="cls-1" d="M295.7,240.99c-4.92-2.69-29.11-15.74-33.64-17.59-4.53-1.84-7.84-2.81-11.37,2.09-3.53,4.88-13.57,15.81-16.61,19.05-3.05,3.24-5.99,3.54-10.91.84-4.92-2.69-20.88-8.59-39.38-26.38-14.4-13.84-23.85-30.63-26.59-35.76-2.74-5.12-.02-7.74,2.58-10.14,2.34-2.17,5.23-5.67,7.85-8.5,2.61-2.83,3.53-4.89,5.32-8.17,1.8-3.28,1.07-6.24-.09-8.79-1.16-2.56-10.26-27.6-14.06-37.79-3.8-10.18-8.04-8.67-10.96-8.79-2.92-.11-6.25-.65-9.6-.78-3.34-.12-8.82.92-13.6,5.78-4.78,4.83-18.18,16.48-19.11,41.14-.92,24.66,16.14,49.17,18.52,52.6,2.38,3.44,32.59,56.9,82.79,78.89,50.21,21.98,50.46,15.28,59.68,14.78,9.22-.48,30.11-11.01,34.73-22.56,4.62-11.54,4.99-21.58,3.81-23.72-1.18-2.13-4.47-3.52-9.39-6.21ZM203.63,359.83c-33.2,0-64.12-9.96-89.94-27.03l-62.82,20.11,20.42-60.7c-19.57-26.95-31.13-60.07-31.13-95.84,0-90.15,73.33-163.48,163.46-163.48s163.47,73.33,163.47,163.48-73.33,163.46-163.47,163.46ZM203.63,0C95.18,0,7.27,87.92,7.27,196.37c0,37.1,10.3,71.79,28.18,101.4L0,403.12l108.72-34.8c28.13,15.55,60.48,24.42,94.91,24.42,108.45,0,196.37-87.92,196.37-196.36S312.08,0,203.63,0Z"/>
  </g>
</svg>