<?xml version="1.0" encoding="UTF-8"?>
<svg id="Layer_1" data-name="Layer 1" xmlns="http://www.w3.org/2000/svg" viewBox="0 0 64 64">
  <defs>
    <style>
      .cls-1 {
        fill: #4770ff;
      }
    </style>
  </defs>
  <g>
    <path class="cls-1" d="M53.8,32.1h-.3c-.5-.1-.8-.7-.7-1.2.5-1.9.8-3.8.8-5.8s-.4-4.7-1.1-6.9c-3-8.8-11.2-14.8-20.5-14.8s-17.6,5.9-20.5,14.8c-.7,2.2-1.1,4.5-1.1,6.9s.3,3.9.8,5.8c.1.5-.2,1.1-.7,1.2s-1.1-.2-1.2-.7c-.6-2-.9-4.2-.9-6.3s.4-5.1,1.2-7.5C12.8,7.9,21.8,1.5,32,1.5s19.2,6.5,22.4,16.1c.8,2.4,1.2,5,1.2,7.5s-.3,4.3-.9,6.3c-.1.4-.5.7-1,.7h.1Z"/>
    <path class="cls-1" d="M40.7,32.1h-.1c-.5,0-.9-.6-.9-1.1.2-1.9.3-3.9.3-5.9s-.2-4.8-.5-7.1c-1.1-8.5-4.3-14.6-7.6-14.6s-6.5,6.1-7.6,14.6c-.3,2.3-.5,4.6-.5,7.1s.1,4.1.3,5.9c0,.5-.3,1-.9,1.1-.6,0-1-.3-1.1-.9-.2-2-.3-4-.3-6.2s.2-5,.5-7.3C23.6,7.8,27.4,1.4,31.9,1.4s8.3,6.4,9.6,16.3c.3,2.3.5,4.8.5,7.3s-.1,4.2-.3,6.2c0,.5-.5.9-1,.9Z"/>
    <path class="cls-1" d="M53.4,18.9H10.4c-.6,0-1-.4-1-1s.4-1,1-1h43c.6,0,1,.4,1,1s-.4,1-1,1Z"/>
    <path class="cls-1" d="M29.8,55.5c-.6,0-1-.4-1-1v-7.9c0-1.4-1.1-2.5-2.5-2.5s-2.5,1.1-2.5,2.5v7.9c0,.6-.4,1-1,1s-1-.4-1-1v-7.9c0-2.5,2-4.5,4.5-4.5s4.5,2,4.5,4.5v7.9c0,.6-.4,1-1,1Z"/>
    <path class="cls-1" d="M36.8,55.5h-2.8c-.6,0-1-.4-1-1v-11.3c0-.6.4-1,1-1h2.8c2.9,0,5.2,2.3,5.2,5.2v2.9c0,2.9-2.3,5.2-5.2,5.2ZM35,53.5h1.8c1.8,0,3.2-1.4,3.2-3.2v-2.9c0-1.8-1.4-3.2-3.2-3.2h-1.8s0,9.3,0,9.3Z"/>
    <path class="cls-1" d="M29.8,51.1h-7c-.6,0-1-.4-1-1s.4-1,1-1h7c.6,0,1,.4,1,1s-.4,1-1,1Z"/>
  </g>
  <path class="cls-1" d="M50.6,62.6H13.2c-2,0-3.6-1.6-3.6-3.6v-20.2c0-2,1.6-3.6,3.6-3.6h13.5l4-6.8c.4-.6,1.4-.6,1.7,0l4,6.8h14.3c2,0,3.6,1.6,3.6,3.6v20.2c0,2-1.6,3.6-3.6,3.6h-.1ZM13.2,37.1c-.9,0-1.6.7-1.6,1.6v20.2c0,.9.7,1.6,1.6,1.6h37.4c.9,0,1.6-.7,1.6-1.6v-20.2c0-.9-.7-1.6-1.6-1.6h-14.8c-.4,0-.7-.2-.9-.5l-3.4-5.8-3.4,5.8c-.2.3-.5.5-.9.5h-14.1.1Z"/>
</svg>