<?xml version="1.0" encoding="UTF-8"?>
<svg id="Layer_1" data-name="Layer 1" xmlns="http://www.w3.org/2000/svg" viewBox="0 0 64 64">
  <defs>
    <style>
      .cls-1 {
        fill: #4770ff;
      }
    </style>
  </defs>
  <path class="cls-1" d="M35.3,49.13h-6.7c-.6,0-1-.4-1-1v-3.3c-.6-.2-1.2-.4-1.7-.7l-2.3,2.3c-.2.2-.4.3-.7.3h0c-.3,0-.5-.1-.7-.3l-4.8-4.8c-.2-.2-.3-.4-.3-.7s.1-.5.3-.7l2.3-2.3c-.3-.6-.5-1.1-.7-1.7h-3.3c-.6,0-1-.4-1-1v-6.7c0-.6.4-1,1-1h3.3c.2-.6.4-1.2.7-1.7l-2.3-2.3c-.4-.4-.4-1,0-1.4l4.8-4.8c.2-.2.4-.3.7-.3h0c.3,0,.5.1.7.3l2.3,2.3c.6-.3,1.1-.5,1.7-.7v-3.3c0-.6.4-1,1-1h6.7c.6,0,1,.4,1,1v3.3c.6.2,1.2.4,1.7.7l2.3-2.3c.2-.2.4-.3.7-.3s.5.1.7.3l4.8,4.8c.4.4.4,1,0,1.4l-2.3,2.3c.3.5.5,1.1.7,1.7h3.3c.6,0,1,.4,1,1v6.7c0,.6-.4,1-1,1h-3.3c-.2.6-.4,1.2-.7,1.7l2.3,2.3c.2.2.3.4.3.7s-.1.5-.3.7l-4.8,4.8c-.2.2-.4.3-.7.3s-.5-.1-.7-.3l-2.3-2.3c-.6.3-1.1.5-1.7.7v3.3c0,.6-.4,1-1,1ZM29.6,47.13h4.7v-3c0-.5.3-.9.8-1,.9-.2,1.8-.6,2.7-1.1.4-.2.9-.2,1.2.2l2.1,2.1,3.3-3.3-2.1-2.1c-.3-.3-.4-.8-.2-1.2.5-.9.9-1.8,1.1-2.7.1-.4.5-.8,1-.8h3v-4.7h-3c-.5,0-.9-.3-1-.7-.2-.9-.6-1.8-1.1-2.6-.2-.4-.2-.9.2-1.2l2.1-2.1-3.3-3.3-2.1,2.1c-.3.3-.8.4-1.2.2-.9-.5-1.7-.9-2.7-1.1-.4-.1-.8-.5-.8-1v-3h-4.7v3c0,.5-.3.9-.8,1-.9.2-1.8.6-2.7,1.1-.4.2-.9.2-1.2-.2l-2.1-2.1-3.3,3.3,2.1,2.1c.3.3.4.8.2,1.2-.5.8-.9,1.7-1.1,2.6-.1.4-.5.7-1,.7h-3v4.7h3c.5,0,.9.3,1,.8.2.9.6,1.8,1.1,2.7.2.4.2.9-.2,1.2l-2.1,2.1,3.3,3.3,2.1-2.1c.3-.3.8-.4,1.2-.2.8.5,1.7.9,2.7,1.1.4.1.8.5.8,1v3h0Z"/>
  <path class="cls-1" d="M8.1,23.63h-.4c-.5-.2-.8-.8-.6-1.3,2.7-6.9,8.2-12.4,15.1-15.1,3.1-1.2,6.4-1.8,9.7-1.8s1,.4,1,1-.4,1-1,1c-3.1,0-6.1.6-9,1.7-6.4,2.5-11.5,7.6-14,14-.2.4-.5.6-.9.6l.1-.1Z"/>
  <path class="cls-1" d="M32,58.63c-.6,0-1-.4-1-1s.4-1,1-1c3.1,0,6.1-.6,9-1.7,6.4-2.5,11.5-7.6,14-14,.2-.5.8-.8,1.3-.6.5.2.8.8.6,1.3-2.7,6.9-8.2,12.4-15.1,15.1-3.1,1.2-6.4,1.8-9.7,1.8l-.1.1Z"/>
  <path class="cls-1" d="M22.6,56.83h-.4c-6.9-2.7-12.4-8.2-15.1-15.1-1.2-3.1-1.8-6.4-1.8-9.7s.4-1,1-1,1,.4,1,1c0,3.1.6,6.1,1.7,9,2.5,6.4,7.6,11.5,14,14,.5.2.8.8.6,1.3-.2.4-.5.6-.9.6l-.1-.1Z"/>
  <path class="cls-1" d="M57.7,32.93c-.6,0-1-.4-1-1,0-3.1-.6-6.1-1.7-9-2.5-6.4-7.6-11.5-14-14-.5-.2-.8-.8-.6-1.3.2-.5.8-.8,1.3-.6,6.9,2.7,12.4,8.2,15.1,15.1,1.2,3.1,1.8,6.4,1.8,9.7s-.4,1-1,1l.1.1Z"/>
  <path class="cls-1" d="M28.5,11.43c-.2,0-.4,0-.6-.2-.4-.4-.5-1-.1-1.4l2.9-3.5-2.9-3.2c-.4-.4-.3-1,0-1.4.4-.4,1-.3,1.4,0l3.4,3.9c.3.4.3.9,0,1.3l-3.4,4.2c-.2.2-.5.4-.8.4l.1-.1Z"/>
  <path class="cls-1" d="M35.4,62.53c-.3,0-.6-.1-.7-.3l-3.4-3.9c-.3-.4-.3-.9,0-1.3l3.4-4.2c.3-.4,1-.5,1.4-.1s.5,1,.1,1.4l-2.9,3.5,2.9,3.2c.4.4.3,1,0,1.4-.2.2-.4.3-.7.3h-.1Z"/>
  <path class="cls-1" d="M57.6,32.93c-.2,0-.5,0-.6-.2l-4.2-3.4c-.4-.4-.5-1-.1-1.4.3-.4,1-.5,1.4-.1l3.5,2.9,3.2-2.9c.4-.4,1-.3,1.4,0,.4.4.3,1,0,1.4l-3.9,3.4c-.2.2-.4.3-.7.3h0Z"/>
  <path class="cls-1" d="M10.5,36.33c-.2,0-.4,0-.6-.2l-3.5-2.9-3.2,2.9c-.4.4-1,.3-1.4,0-.4-.4-.3-1,0-1.4l3.9-3.4c.4-.3.9-.3,1.3,0l4.2,3.4c.4.4.5,1,.1,1.4-.2.2-.5.4-.8.4v-.2Z"/>
  <path class="cls-1" d="M30.8,36.83c-.3,0-.5,0-.7-.3l-3.8-3.8c-.4-.4-.4-1,0-1.4s1-.4,1.4,0l3,3,6.4-6.4c.4-.4,1-.4,1.4,0s.4,1,0,1.4l-7.1,7.1c-.2.2-.5.3-.7.3l.1.1Z"/>
</svg>