<?xml version="1.0" encoding="UTF-8"?>
<svg id="Layer_1" data-name="Layer 1" xmlns="http://www.w3.org/2000/svg" viewBox="0 0 64 64">
  <defs>
    <style>
      .cls-1 {
        fill: #4770ff;
      }
    </style>
  </defs>
  <path class="cls-1" d="M38.5,49.35h-13.1c-2,0-3.7-1.7-3.7-3.7v-2.1c0-1.5-.7-3-1.9-4.1-4.3-4-6.3-9.7-5.5-15.6,1.1-7.9,7.7-14.3,15.6-15.1,5.1-.6,10.1,1,13.9,4.4,3.8,3.4,5.9,8.2,5.9,13.2s-2.1,9.7-5.7,13.1c-1.2,1.1-1.8,2.6-1.8,4.1v2.1c0,2-1.7,3.7-3.7,3.7ZM32,10.55h-1.8c-7,.8-12.9,6.4-13.9,13.4-.7,5.2,1,10.3,4.9,13.8,1.6,1.5,2.5,3.5,2.5,5.6v2.1c0,.9.8,1.7,1.7,1.7h13.1c.9,0,1.7-.8,1.7-1.7v-2.1c0-2.1.9-4.1,2.5-5.6,3.2-3,5.1-7.2,5.1-11.6s-1.9-8.8-5.2-11.8c-2.9-2.6-6.6-4-10.5-4l-.1.2Z"/>
  <path class="cls-1" d="M34,62.35h-4.2c-3.1,0-5.5-2.5-5.5-5.5v-8.5c0-.6.4-1,1-1h13.2c.6,0,1,.4,1,1v8.5c0,3.1-2.5,5.5-5.5,5.5ZM26.4,49.35v7.5c0,2,1.6,3.5,3.5,3.5h4.2c2,0,3.5-1.6,3.5-3.5v-7.5h-11.2Z"/>
  <path class="cls-1" d="M27.4,49.15h0c-.6,0-1-.5-1-1v-5.6c0-2.5-1-4.9-2.8-6.6l-1.4-1.3c-.4-.4-.4-1,0-1.4l9.1-11.3c.3-.3.7-.5,1.1-.3.4.1.7.5.7.9v12.1c0,.6-.4,1-1,1s-1-.4-1-1v-9.3l-6.8,8.3.7.7c2.2,2.1,3.5,5,3.5,8.1v5.6c0,.5-.5,1-1.1,1v.1Z"/>
  <path class="cls-1" d="M36.5,49.15c-.5,0-1-.4-1-1v-5.6c0-3.1,1.2-6,3.5-8.1l.7-.7-6.8-8.3v9.3c0,.6-.4,1-1,1s-1-.4-1-1v-12.1c0-.4.3-.8.7-.9s.8,0,1.1.3l9.1,11.3c.3.4.3,1,0,1.4l-1.4,1.3c-1.8,1.7-2.9,4.1-2.9,6.6v5.6c0,.6-.4,1-.9,1h0l-.1-.1Z"/>
  <path class="cls-1" d="M38.6,56.85h-13.2c-.6,0-1-.4-1-1v-3.6c0-.6.4-1,1-1h13.2c.6,0,1,.4,1,1v3.6c0,.6-.4,1-1,1ZM26.4,54.85h11.2v-1.6h-11.2v1.6h0Z"/>
  <path class="cls-1" d="M32,6.95c-.6,0-1-.4-1-1v-3.3c0-.6.4-1,1-1s1,.4,1,1v3.3c0,.6-.4,1-1,1Z"/>
  <path class="cls-1" d="M56.7,28.15h-3.3c-.6,0-1-.4-1-1s.4-1,1-1h3.3c.6,0,1,.4,1,1s-.4,1-1,1Z"/>
  <path class="cls-1" d="M10.6,28.15h-3.3c-.6,0-1-.4-1-1s.4-1,1-1h3.3c.6,0,1,.4,1,1s-.4,1-1,1Z"/>
  <path class="cls-1" d="M49.4,45.55c-.3,0-.5,0-.7-.3l-2.4-2.4c-.4-.4-.4-1,0-1.4s1-.4,1.4,0l2.4,2.4c.4.4.4,1,0,1.4s-.5.3-.7.3h0Z"/>
  <path class="cls-1" d="M16.9,13.05c-.3,0-.5,0-.7-.3l-2.4-2.4c-.4-.4-.4-1,0-1.4s1-.4,1.4,0l2.4,2.4c.4.4.4,1,0,1.4s-.5.3-.7.3Z"/>
  <path class="cls-1" d="M47.1,13.05c-.3,0-.5,0-.7-.3-.4-.4-.4-1,0-1.4l2.4-2.4c.4-.4,1-.4,1.4,0s.4,1,0,1.4l-2.4,2.4c-.2.2-.5.3-.7.3h0Z"/>
  <path class="cls-1" d="M14.5,45.55c-.3,0-.5,0-.7-.3-.4-.4-.4-1,0-1.4l2.4-2.4c.4-.4,1-.4,1.4,0s.4,1,0,1.4l-2.4,2.4c-.2.2-.5.3-.7.3Z"/>
</svg>