<?xml version="1.0" encoding="UTF-8"?>
<svg id="Layer_1" data-name="Layer 1" xmlns="http://www.w3.org/2000/svg" viewBox="0 0 64 64">
  <defs>
    <style>
      .cls-1 {
        fill: #4770ff;
      }
    </style>
  </defs>
  <path class="cls-1" d="M55.35,50H8.55c-.6,0-1-.4-1-1v-28.6c0-2.5,2-4.5,4.4-4.5h3.4c.6,0,1,.4,1,1s-.4,1-1,1h-3.4c-1.4,0-2.4,1.1-2.4,2.5v27.6h44.8v-27.6c0-1.4-1.1-2.5-2.5-2.5h-3.4c-.6,0-1-.4-1-1s.4-1,1-1h3.4c2.5,0,4.5,2,4.5,4.5v28.6c0,.6-.4,1-1,1Z"/>
  <path class="cls-1" d="M56.05,59.8H7.85c-3.7,0-6.7-3-6.7-6.7v-4.1c0-.6.4-1,1-1h59.7c.6,0,1,.4,1,1v4.1c0,3.7-3,6.7-6.7,6.7h-.1ZM3.15,50v3.1c0,2.6,2.1,4.7,4.7,4.7h48.3c2.6,0,4.7-2.1,4.7-4.7v-3.1H3.15Z"/>
  <path class="cls-1" d="M55.35,43.7H8.55c-.6,0-1-.4-1-1s.4-1,1-1h46.8c.6,0,1,.4,1,1s-.4,1-1,1Z"/>
  <path class="cls-1" d="M41.75,54.9h-19.7c-2,0-3.7-1.7-3.7-3.7v-2.2c0-.6.4-1,1-1h25c.6,0,1,.4,1,1v2.2c0,2-1.7,3.7-3.7,3.7h.1ZM20.45,50v1.2c0,.9.8,1.7,1.7,1.7h19.7c.9,0,1.7-.8,1.7-1.7v-1.2h-23.1Z"/>
  <path class="cls-1" d="M48.45,43.7H15.45c-.6,0-1-.4-1-1V8.3c0-2.2,1.8-4.1,4.1-4.1h26.9c2.2,0,4.1,1.8,4.1,4.1v34.4c0,.6-.4,1-1,1h-.1ZM16.45,41.7h31.1V8.3c0-1.1-.9-2.1-2.1-2.1h-26.9c-1.1,0-2.1.9-2.1,2.1v33.4Z"/>
  <path class="cls-1" d="M48.45,14.2H15.45c-.6,0-1-.4-1-1s.4-1,1-1h33.1c.6,0,1,.4,1,1s-.4,1-1,1h-.1Z"/>
  <path class="cls-1" d="M38.15,10.4h-3.4c-.6,0-1-.4-1-1s.4-1,1-1h3.4c.6,0,1,.4,1,1s-.4,1-1,1Z"/>
  <path class="cls-1" d="M44.65,10.4h-3.4c-.6,0-1-.4-1-1s.4-1,1-1h3.4c.6,0,1,.4,1,1s-.4,1-1,1Z"/>
  <path class="cls-1" d="M38.05,38.7h-12.1c-.6,0-1-.4-1-1v-4.9c0-.6.4-1,1-1h12.1c.6,0,1,.4,1,1v4.9c0,.6-.4,1-1,1ZM26.85,36.7h10.1v-2.9h-10.1v2.9Z"/>
  <path class="cls-1" d="M28.75,33.8c-.6,0-1-.4-1-1,0-1.7-.7-3.3-1.9-4.4l-1-.9c-.4-.4-.4-1,0-1.4l6.4-7.9c.3-.3.7-.5,1.1-.3.4.1.7.5.7.9v8.5c0,.6-.4,1-1,1s-1-.4-1-1v-5.7l-4.1,5,.3.3c1.6,1.5,2.6,3.7,2.6,5.9s-.4,1-1,1h-.1Z"/>
  <path class="cls-1" d="M35.15,33.8c-.6,0-1-.4-1-1,0-2.2.9-4.4,2.6-5.9l.3-.3-4.1-5v5.7c0,.6-.4,1-1,1s-1-.4-1-1v-8.5c0-.4.3-.8.7-.9s.8,0,1.1.3l6.4,7.9c.3.4.3,1,0,1.4l-1,.9c-1.2,1.1-1.9,2.7-1.9,4.4s-.4,1-1,1h-.1Z"/>
</svg>