<?xml version="1.0" encoding="UTF-8"?>
<svg id="Layer_1" data-name="Layer 1" xmlns="http://www.w3.org/2000/svg" viewBox="0 0 64 64">
  <defs>
    <style>
      .cls-1 {
        fill: #4770ff;
      }
    </style>
  </defs>
  <g>
    <path class="cls-1" d="M20.85,30.8c-2.5,0-4.9-1.4-6.1-3.6-.5-1-.8-2.1-.8-3.3,0-3.5,2.6-6.5,6.1-6.8.6,0,1,.3,1.1.9,0,.5-.3,1-.9,1.1-2.5.3-4.4,2.4-4.4,4.9s.2,1.6.6,2.3c.9,1.6,2.5,2.6,4.3,2.6s1.2-.1,1.7-.3c.5-.2,1.1,0,1.3.6.2.5,0,1.1-.6,1.3-.8.3-1.6.5-2.4.5l.1-.2Z"/>
    <path class="cls-1" d="M14.95,38.3h0c-.2,0-.3,0-.5-.1-2.2-1.2-3.6-3.5-3.6-6s1.8-5.4,4.5-6.5c.5-.2,1.1,0,1.3.6s0,1.1-.6,1.3c-1.9.7-3.2,2.6-3.2,4.6s1,3.4,2.5,4.3c.3.2.6.5.6.9,0,.6-.4,1-1,1v-.1Z"/>
    <path class="cls-1" d="M26.15,53.2c-3.5,0-6.4-2.6-6.8-6,0-.5.3-1,.9-1.1.5,0,1,.3,1.1.9.3,2.4,2.4,4.3,4.9,4.3s4.9-2.2,4.9-4.9v-28.7c0-2.6-2.1-4.6-4.9-4.6s-4.9,2.2-4.9,4.9h0c0,1.5.6,2.8,1.6,3.6.4.4.5,1,0,1.4-.4.4-1,.5-1.4,0-1.4-1.3-2.3-3.1-2.3-5v-.2c0-3.8,3.1-6.9,6.9-6.9s6.9,2.9,6.9,6.6v28.7c0,3.8-3.1,6.9-6.9,6.9v.1Z"/>
    <path class="cls-1" d="M19.35,48.2c-3.9,0-6.9-3.1-6.9-6.9s.6-3.3,1.8-4.6h0c1.3-1.4,3.1-2.2,5.1-2.2s1,.4,1,1-.4,1-1,1c-1.4,0-2.7.6-3.6,1.6h0c-.8.9-1.2,2-1.2,3.2,0,2.7,2.2,4.9,4.9,4.9,1.6,0,3.1-.8,4-2.1.3-.5.9-.6,1.4-.2.5.3.6.9.2,1.4-1.3,1.8-3.4,2.9-5.6,2.9h-.1Z"/>
    <path class="cls-1" d="M20.05,38.1c-.3,0-.5,0-.7-.3-.7-.7-1-1.6-1-2.5s.4-1.8,1-2.5c.4-.4,1-.4,1.4,0s.4,1,0,1.4c-.3.3-.4.7-.4,1.1s.2.8.4,1.1.4,1,0,1.4-.5.3-.7.3Z"/>
    <path class="cls-1" d="M21.95,25.2c-.5,0-.9-.3-1-.8-.2-.9,0-1.9.5-2.7.5-.8,1.3-1.4,2.2-1.6.5-.1,1.1.2,1.2.8.1.5-.2,1.1-.8,1.2-.4,0-.7.3-1,.7s-.3.8-.2,1.2c.1.5-.2,1.1-.8,1.2h-.2.1Z"/>
    <path class="cls-1" d="M32.05,45.2c-.6,0-1-.4-1-1v-.5c0-1.2-1-2.2-2.2-2.2s-1-.4-1-1,.4-1,1-1c2.3,0,4.2,1.9,4.2,4.2v.5c0,.6-.4,1-1,1h0Z"/>
    <path class="cls-1" d="M43.15,30.8c-.8,0-1.7-.2-2.4-.5-.5-.2-.8-.8-.6-1.3s.8-.8,1.3-.6c.6.2,1.1.3,1.7.3,1.8,0,3.5-1,4.3-2.6.4-.7.6-1.5.6-2.3,0-2.5-1.9-4.6-4.4-4.9-.5,0-.9-.6-.9-1.1s.5-.9,1.1-.9c3.5.4,6.1,3.3,6.1,6.8s-.3,2.3-.8,3.3c-1.2,2.2-3.5,3.6-6.1,3.6l.1.2Z"/>
    <path class="cls-1" d="M49.05,38.3c-.6,0-1-.4-1-1s.2-.8.6-.9c1.5-.9,2.5-2.5,2.5-4.2s-1.3-3.9-3.2-4.6c-.5-.2-.8-.8-.6-1.3s.8-.8,1.3-.6c2.7,1,4.5,3.6,4.5,6.5s-1.4,4.8-3.6,6c-.1,0-.3.1-.5.1Z"/>
    <path class="cls-1" d="M37.95,53.2c-3.8,0-6.9-3.1-6.9-6.9v-28.7c0-3.7,3-6.6,6.9-6.6s6.9,3.1,6.9,6.9h0c0,2.1-.9,3.9-2.3,5.2-.4.4-1,.3-1.4,0s-.3-1,0-1.4c1-.9,1.6-2.2,1.6-3.5h0c0-2.8-2.2-5-4.9-5s-4.9,2-4.9,4.6v28.7c0,2.7,2.2,4.9,4.9,4.9s4.5-1.8,4.9-4.3c0-.5.6-.9,1.1-.9s.9.6.9,1.1c-.4,3.4-3.4,6-6.8,6v-.1Z"/>
    <path class="cls-1" d="M44.65,48.2c-2.3,0-4.4-1.1-5.6-2.9-.3-.5-.2-1.1.2-1.4.5-.3,1.1-.2,1.4.2.9,1.3,2.4,2.1,4,2.1,2.7,0,4.9-2.2,4.9-4.9s-.4-2.3-1.2-3.2h0c-.9-1-2.3-1.6-3.6-1.6s-1-.4-1-1,.4-1,1-1c1.9,0,3.8.8,5.1,2.2h0c1.1,1.3,1.8,2.9,1.8,4.6,0,3.8-3.1,6.9-6.9,6.9h-.1Z"/>
    <path class="cls-1" d="M43.95,38.1c-.3,0-.5,0-.7-.3-.4-.4-.4-1,0-1.4.6-.6.6-1.6,0-2.2s-.4-1,0-1.4,1-.4,1.4,0c1.4,1.4,1.4,3.6,0,5-.2.2-.5.3-.7.3Z"/>
    <path class="cls-1" d="M42.15,25.2h-.2c-.5-.1-.9-.7-.8-1.2.2-.8-.3-1.6-1.2-1.8-.5-.1-.9-.7-.8-1.2.1-.5.7-.9,1.2-.8.9.2,1.7.8,2.2,1.6s.7,1.7.5,2.7c-.1.5-.5.8-1,.8l.1-.1Z"/>
    <path class="cls-1" d="M32.05,45.2c-.6,0-1-.4-1-1v-.5c0-2.3,1.9-4.2,4.2-4.2s1,.4,1,1-.4,1-1,1c-1.2,0-2.2,1-2.2,2.2v.5c0,.6-.4,1-1,1Z"/>
  </g>
  <path class="cls-1" d="M40.15,13.5c-.6,0-1-.4-1-1v-3.1c0-2.3,1.8-4.1,4.1-4.1h7.8c.6,0,1,.4,1,1s-.4,1-1,1h-7.8c-1.2,0-2.1.9-2.1,2.1v3.1c0,.6-.4,1-1,1h0Z"/>
  <path class="cls-1" d="M54.25,10.4c-2.3,0-4.1-1.8-4.1-4.1s1.8-4.1,4.1-4.1,4.1,1.8,4.1,4.1-1.8,4.1-4.1,4.1ZM54.25,4.1c-1.2,0-2.1,1-2.1,2.1s1,2.1,2.1,2.1,2.1-1,2.1-2.1-1-2.1-2.1-2.1Z"/>
  <path class="cls-1" d="M59.05,35.9c-2.3,0-4.1-1.8-4.1-4.1s1.8-4.1,4.1-4.1,4.1,1.8,4.1,4.1-1.8,4.1-4.1,4.1ZM59.05,29.7c-1.2,0-2.1,1-2.1,2.1s1,2.1,2.1,2.1,2.1-1,2.1-2.1-1-2.1-2.1-2.1Z"/>
  <path class="cls-1" d="M51.05,58.7h-7.8c-2.3,0-4.1-1.8-4.1-4.1v-2.9c0-.6.5-1,1-1h0c.6,0,1,.5,1,1v2.9c0,1.2.9,2.1,2.1,2.1h7.8c.6,0,1,.4,1,1s-.4,1-1,1Z"/>
  <path class="cls-1" d="M54.25,61.8c-2.3,0-4.1-1.8-4.1-4.1s1.8-4.1,4.1-4.1,4.1,1.8,4.1,4.1-1.8,4.1-4.1,4.1ZM54.25,55.6c-1.2,0-2.1,1-2.1,2.1s1,2.1,2.1,2.1,2.1-1,2.1-2.1-1-2.1-2.1-2.1Z"/>
  <path class="cls-1" d="M55.95,32.8h-3.9c-.6,0-1-.4-1-1s.4-1,1-1h3.9c.6,0,1,.4,1,1s-.4,1-1,1Z"/>
  <path class="cls-1" d="M23.85,13.5h0c-.6,0-1-.5-1-1v-3.1c0-1.2-.9-2.1-2.1-2.1h-7.8c-.6,0-1-.4-1-1s.4-1,1-1h7.8c2.3,0,4.1,1.8,4.1,4.1v3.1c0,.6-.5,1-1,1Z"/>
  <path class="cls-1" d="M9.85,10.4c-2.3,0-4.1-1.8-4.1-4.1s1.8-4.1,4.1-4.1,4.1,1.8,4.1,4.1-1.8,4.1-4.1,4.1ZM9.85,4.1c-1.2,0-2.1,1-2.1,2.1s1,2.1,2.1,2.1,2.1-1,2.1-2.1-1-2.1-2.1-2.1Z"/>
  <path class="cls-1" d="M4.95,35.9c-2.3,0-4.1-1.8-4.1-4.1s1.8-4.1,4.1-4.1,4.1,1.8,4.1,4.1-1.8,4.1-4.1,4.1ZM4.95,29.7c-1.2,0-2.1,1-2.1,2.1s1,2.1,2.1,2.1,2.1-1,2.1-2.1-1-2.1-2.1-2.1Z"/>
  <path class="cls-1" d="M20.75,58.7h-7.8c-.6,0-1-.4-1-1s.4-1,1-1h7.8c1.2,0,2.1-1,2.1-2.1v-2.9c0-.6.4-1,1-1s1,.4,1,1v2.9c0,2.3-1.8,4.1-4.1,4.1Z"/>
  <path class="cls-1" d="M9.85,61.8c-2.3,0-4.1-1.8-4.1-4.1s1.8-4.1,4.1-4.1,4.1,1.8,4.1,4.1-1.8,4.1-4.1,4.1ZM9.85,55.6c-1.2,0-2.1,1-2.1,2.1s1,2.1,2.1,2.1,2.1-1,2.1-2.1-1-2.1-2.1-2.1Z"/>
  <path class="cls-1" d="M11.95,32.8h-3.9c-.6,0-1-.4-1-1s.4-1,1-1h3.9c.6,0,1,.4,1,1s-.4,1-1,1Z"/>
</svg>