<?xml version="1.0" encoding="UTF-8"?>
<svg id="Layer_1" data-name="Layer 1" xmlns="http://www.w3.org/2000/svg" viewBox="0 0 64 64">
  <defs>
    <style>
      .cls-1 {
        fill: #4770ff;
      }
    </style>
  </defs>
  <path class="cls-1" d="M49.5,14.97h0c-.6,0-1-.4-1-1s.4-1,1-1,1,.4,1,1-.4,1-1,1Z"/>
  <path class="cls-1" d="M13.7,25.77h-.2c-.5-.1-.9-.6-.8-1.2.8-4.3,2.9-8.2,6.1-11.3,7.2-7.2,18.4-8.6,27.1-3.3.3.2.5.5.5.9,0,.6-.4,1-1,1h0c-.2,0-.4,0-.5-.1-7.9-4.8-18.1-3.6-24.7,3-2.8,2.8-4.7,6.4-5.5,10.3,0,.5-.5.8-1,.8v-.1Z"/>
  <path class="cls-1" d="M34.5,51.17c-4.9,0-9.8-1.6-13.8-4.8-.4-.3-.5-1-.2-1.4s1-.5,1.4-.2c8,6.4,19.6,5.8,26.9-1.5,6.6-6.6,7.8-16.8,3-24.7-.3-.5-.1-1.1.3-1.4.5-.3,1.1-.1,1.4.3,5.3,8.7,3.9,19.9-3.3,27.2-4.3,4.3-10,6.5-15.7,6.5Z"/>
  <path class="cls-1" d="M34.5,42.47c-3.4,0-6.8-1.3-9.4-3.8-.4-.4-.4-1,0-1.4s1-.4,1.4,0c4.5,4.4,11.8,4.4,16.2,0s4.5-11.8,0-16.3-11.8-4.5-16.3,0c-1.8,1.8-2.9,4.1-3.3,6.6,0,.5-.6.9-1.1.9s-.9-.6-.9-1.1c.4-3,1.7-5.7,3.8-7.8,5.3-5.3,13.8-5.3,19.1,0s5.3,13.8,0,19.1-6.1,3.9-9.6,3.9l.1-.1Z"/>
  <path class="cls-1" d="M34.5,34.97c-1.6,0-3.1-.6-4.3-1.8-2.4-2.4-2.4-6.2,0-8.6,2.4-2.4,6.2-2.4,8.6,0s2.4,6.2,0,8.6c-1.2,1.2-2.7,1.8-4.3,1.8ZM34.5,24.87c-1,0-2.1.4-2.9,1.2-1.6,1.6-1.6,4.2,0,5.8,1.6,1.6,4.2,1.6,5.8,0s1.6-4.2,0-5.8-1.8-1.2-2.9-1.2Z"/>
  <path class="cls-1" d="M34.5,29.97c-.3,0-.5,0-.7-.3-.4-.4-.4-1,0-1.4l15.5-15.5c.4-.4,1-.4,1.4,0s.4,1,0,1.4l-15.5,15.5c-.2.2-.5.3-.7.3Z"/>
  <path class="cls-1" d="M51.1,20.47h-.3l-5.5-1.6c-.3,0-.6-.4-.7-.7l-1.6-5.5c-.1-.4,0-.7.3-1l8.8-8.8c.2-.3.6-.4,1-.3.3,0,.6.3.7.7l1.5,5,5,1.5c.3,0,.6.4.7.7,0,.3,0,.7-.3,1l-8.8,8.8c-.2.2-.4.3-.7.3l-.1-.1ZM46.4,17.07l4.5,1.3,7.2-7.2-3.9-1.1c-.3,0-.6-.4-.7-.7l-1.1-3.9-7.2,7.2,1.3,4.5-.1-.1Z"/>
  <path class="cls-1" d="M19.3,52.97h-8.6c-1.5,0-2.8-1.2-2.8-2.8v-3.3c0-.9-.4-1.8-1.1-2.4-2.9-2.7-4.2-6.5-3.7-10.5.7-5.3,5.2-9.6,10.5-10.2,3.4-.4,6.8.7,9.3,3s4,5.5,4,8.9-1.4,6.5-3.8,8.8c-.7.6-1.1,1.5-1.1,2.4v3.3c0,.7-.3,1.4-.8,2-.5.5-1.2.8-2,.8h.1ZM15,25.67h-1.1c-4.4.5-8.1,4-8.7,8.5-.5,3.3.7,6.5,3.1,8.7,1.1,1,1.7,2.5,1.7,3.9v3.3c0,.4.3.8.8.8h8.6c.2,0,.4,0,.5-.2.1-.1.2-.3.2-.5v-3.3c0-1.5.6-2.9,1.7-3.9,2-1.9,3.2-4.5,3.2-7.3s-1.2-5.5-3.3-7.4c-1.9-1.7-4.2-2.5-6.6-2.5l-.1-.1Z"/>
  <path class="cls-1" d="M16.4,61.47h-2.7c-2.2,0-4-1.8-4-4v-5.5c0-.6.4-1,1-1h8.6c.6,0,1,.4,1,1v5.5c0,2.2-1.8,4-4,4h.1ZM11.7,52.97v4.5c0,1.1.9,2,2,2h2.7c1.1,0,2-.9,2-2v-4.5h-6.7Z"/>
  <path class="cls-1" d="M19.3,57.17h-8.6c-.6,0-1-.4-1-1s.4-1,1-1h8.6c.6,0,1,.4,1,1s-.4,1-1,1Z"/>
  <path class="cls-1" d="M12.8,41.17c-.3,0-.5,0-.7-.3l-3.3-3.3c-.4-.4-.4-1,0-1.4s1-.4,1.4,0l2.6,2.6,6.2-6.2c.4-.4,1-.4,1.4,0s.4,1,0,1.4l-6.9,6.9c-.2.2-.5.3-.7.3Z"/>
</svg>