<?xml version="1.0" encoding="UTF-8"?>
<svg id="Layer_1" data-name="Layer 1" xmlns="http://www.w3.org/2000/svg" viewBox="0 0 64 64">
  <defs>
    <style>
      .cls-1 {
        fill: #4770ff;
      }
    </style>
  </defs>
  <path class="cls-1" d="M8.15,36.6c-.2,0-.5,0-.6-.2-.3-.3-.4-.7-.3-1.1l2.8-8.3c-4.5-2.7-7.2-6.9-7.2-11.4C2.85,7.7,11.05,1.2,21.15,1.2s18.3,6.4,18.3,14.4-8.2,14.4-18.3,14.4-.8,0-1.2,0l-11.3,6.5c-.2,0-.3.1-.5.1ZM21.15,3.2C12.15,3.2,4.85,8.7,4.85,15.6s2.6,7.8,6.9,10.1c.4.2.6.7.5,1.2l-2.2,6.5,9.2-5.4c.2,0,.4-.1.6-.1h1.4c9,0,16.3-5.5,16.3-12.4S30.25,3.1,21.25,3.1l-.1.1Z"/>
  <path class="cls-1" d="M29.75,30.7c-.2,0-.5,0-.7-.2-.6-.6-1.2-1.2-1.8-2-.3-.4-.3-1.1.2-1.4.4-.3,1.1-.3,1.4.2.5.6,1,1.2,1.6,1.7.4.4.5,1,0,1.4-.2.2-.5.3-.8.3h.1Z"/>
  <path class="cls-1" d="M55.85,42.1c-.2,0-.3,0-.5-.1l-11.3-6.5h-2c-.5,0-1-.5-.9-1.1,0-.6.5-1,1.1-.9h2c.2,0,.4,0,.6.1l9.2,5.4-2.2-6.5c-.2-.5,0-1,.5-1.2,4.3-2.3,6.9-6.1,6.9-10.1,0-6.8-7.3-12.4-16.3-12.4s-4.5.4-6.6,1.1c-.5.2-1.1-.1-1.3-.6s.1-1.1.6-1.3c2.3-.8,4.7-1.2,7.2-1.2,10.1,0,18.3,6.4,18.3,14.4s-2.7,8.7-7.2,11.4l2.8,8.3c.1.4,0,.8-.3,1.1-.2.1-.4.2-.6.2v-.1Z"/>
  <path class="cls-1" d="M24.25,62.8h-.3c-.4-.1-.7-.5-.7-.9v-7.5c-4.5-1-7.9-3.7-9.2-7.4-1.1-3.2-.6-6.8,1.6-10.1,2.1-3.2,5.4-5.7,9.4-7.1s8.2-1.5,11.8-.3c3.7,1.2,6.4,3.7,7.5,6.9s.6,6.8-1.5,10.1c-2.1,3.2-5.4,5.7-9.4,7.1-.3.1-.6.2-1,.3l-7.4,8.6c-.2.2-.5.3-.8.3h0ZM31.55,30.6c-1.9,0-3.9.3-5.8,1-3.6,1.2-6.6,3.5-8.4,6.3-1.8,2.7-2.3,5.7-1.3,8.3,1.1,3.2,4.3,5.6,8.4,6.2.5,0,.8.5.8,1v5.6l5.8-6.8c.1-.2.3-.3.5-.3.4-.1.8-.2,1.1-.4,3.6-1.2,6.6-3.5,8.4-6.3,1.8-2.7,2.3-5.7,1.3-8.3h0c-.9-2.6-3.1-4.6-6.2-5.7-1.5-.5-3-.7-4.7-.7l.1.1Z"/>
  <path class="cls-1" d="M20.95,23.4c-.2,0-.3,0-.4-.1-7.4-3.7-7.8-8-7.6-9.6.2-2.2,1.7-4,3.7-4.6,2.1-.6,3.5.4,4.4,1.5.9-1.2,2.3-2.1,4.4-1.5,2,.5,3.5,2.4,3.7,4.6.2,1.7-.3,6-7.6,9.6-.1,0-.3.1-.4.1h-.2ZM17.75,10.9h-.6c-1.2.3-2.1,1.5-2.2,2.9-.1,1.2.2,4.4,6.1,7.4,5.8-3,6.2-6.2,6.1-7.4-.1-1.4-1-2.5-2.2-2.9-2.1-.6-2.8,1.8-2.9,2-.1.4-.5.7-1,.7-.4,0-.8-.3-1-.7,0-.2-.7-2.1-2.3-2.1v.1Z"/>
  <g>
    <path class="cls-1" d="M26.35,50.2c-.7,0-1.3-.3-1.7-1l-3.9-6.5c-.3-.5-.3-1-.2-1.5s.5-.9.9-1.2l1.9-1.1c.5-.3,1-.3,1.5-.2s.9.5,1.2.9l3.9,6.5c.3.5.3,1,.2,1.5s-.5.9-.9,1.2h0l-1.9,1.1c-.3.2-.7.3-1,.3ZM24.35,40.7l-1.8,1.1,3.9,6.5,1.8-1.1-3.8-6.5h-.1ZM28.75,48h0ZM28.25,47.1h0Z"/>
    <path class="cls-1" d="M29.15,47.9c-.3,0-.7-.2-.9-.5-.3-.5-.1-1.1.4-1.4l5.8-3.5c.7-.4,1-1.3.8-2.1l-1.1-4.1c0-.1-.1-.2-.2-.2h-.3l-3,1.8c-.3.2-.8.2-1.1,0s-.5-.6-.4-1c.2-.9.1-1.6-.1-2,0,0-.1-.1-.2-.2l-.5,4c0,.3-.2.6-.5.7l-2.3,1.4c-.5.3-1.1.1-1.4-.4-.3-.5-.1-1.1.4-1.4l1.9-1.1.5-4.1c0-.8.7-1.3,1.5-1.3.9,0,1.7.4,2.2,1,.3.4.6,1,.6,1.6l1.4-.8c.6-.4,1.4-.4,2-.1.7.3,1.2.8,1.3,1.5l1.1,4.1c.4,1.7-.3,3.4-1.8,4.3l-5.8,3.5c-.2,0-.3.1-.5.1l.2.2ZM28.45,34.7h0Z"/>
  </g>
  <path class="cls-1" d="M48.85,16.2h-6.3c-.6,0-1-.4-1-1s.4-1,1-1h6.3c.6,0,1,.4,1,1s-.4,1-1,1Z"/>
  <path class="cls-1" d="M48.45,28.9h-6.3c-.6,0-1-.4-1-1s.4-1,1-1h6.3c.6,0,1,.4,1,1s-.4,1-1,1Z"/>
  <path class="cls-1" d="M52.65,22.8h-11.2c-.6,0-1-.4-1-1s.4-1,1-1h11.2c.6,0,1,.4,1,1s-.4,1-1,1Z"/>
</svg>