<?xml version="1.0" encoding="UTF-8"?>
<svg id="Layer_1" data-name="Layer 1" xmlns="http://www.w3.org/2000/svg" viewBox="0 0 64 64">
  <defs>
    <style>
      .cls-1 {
        fill: #4770ff;
      }
    </style>
  </defs>
  <path class="cls-1" d="M56.5,54.2h-6.7c-.6,0-1-.4-1-1s.4-1,1-1h6.7c1.3,0,2.4-1.1,2.4-2.4V6.1c0-1.3-1.1-2.4-2.4-2.4H7.5c-1.3,0-2.4,1.1-2.4,2.4v43.7c0,1.3,1.1,2.4,2.4,2.4h6.7c.6,0,1,.4,1,1s-.4,1-1,1h-6.7c-2.4,0-4.4-2-4.4-4.4V6.1C3.1,3.7,5.1,1.7,7.5,1.7h49c2.4,0,4.4,2,4.4,4.4v43.7c0,2.4-2,4.4-4.4,4.4Z"/>
  <path class="cls-1" d="M59.9,14.2H4.2c-.6,0-1-.4-1-1s.4-1,1-1h55.7c.6,0,1,.4,1,1s-.4,1-1,1Z"/>
  <path class="cls-1" d="M55.3,9h-4c-.6,0-1-.4-1-1s.4-1,1-1h4c.6,0,1,.4,1,1s-.4,1-1,1Z"/>
  <path class="cls-1" d="M47.3,9h-4c-.6,0-1-.4-1-1s.4-1,1-1h4c.6,0,1,.4,1,1s-.4,1-1,1Z"/>
  <path class="cls-1" d="M47.6,62.3h-31.2c-1.7,0-3.2-1.4-3.2-3.2v-27.9c0-1.7,1.4-3.2,3.2-3.2h31.2c1.7,0,3.2,1.4,3.2,3.2v27.9c0,1.7-1.4,3.2-3.2,3.2ZM16.4,30.1c-.6,0-1.2.5-1.2,1.2v27.9c0,.6.5,1.2,1.2,1.2h31.2c.6,0,1.2-.5,1.2-1.2v-27.9c0-.6-.5-1.2-1.2-1.2h-31.2Z"/>
  <path class="cls-1" d="M49.8,36.8H14.3c-.6,0-1-.4-1-1s.4-1,1-1h35.5c.6,0,1,.4,1,1s-.4,1-1,1Z"/>
  <path class="cls-1" d="M45.7,33.5h-2.6c-.6,0-1-.4-1-1s.4-1,1-1h2.6c.6,0,1,.4,1,1s-.4,1-1,1Z"/>
  <path class="cls-1" d="M39.3,33.5h-2.6c-.6,0-1-.4-1-1s.4-1,1-1h2.6c.6,0,1,.4,1,1s-.4,1-1,1Z"/>
  <path class="cls-1" d="M24.7,55c-.3,0-.5,0-.7-.3l-5.7-5.7c-.2-.2-.3-.4-.3-.7s.1-.5.3-.7l5.7-5.7c.4-.4,1-.4,1.4,0s.4,1,0,1.4l-5,5,5,5c.4.4.4,1,0,1.4s-.5.3-.7.3Z"/>
  <path class="cls-1" d="M39.4,55c-.3,0-.5,0-.7-.3-.4-.4-.4-1,0-1.4l5-5-5-5c-.4-.4-.4-1,0-1.4s1-.4,1.4,0l5.7,5.7c.4.4.4,1,0,1.4l-5.7,5.7c-.2.2-.5.3-.7.3Z"/>
  <path class="cls-1" d="M28.9,55c-.2,0-.3,0-.5-.1-.5-.3-.7-.9-.4-1.4l6.3-11.4c.3-.5.9-.7,1.4-.4s.7.9.4,1.4l-6.3,11.4c-.2.3-.5.5-.9.5Z"/>
</svg>